<svg xmlns="http://www.w3.org/2000/svg" xmlns:xlink="http://www.w3.org/1999/xlink" width="292" zoomAndPan="magnify" viewBox="0 0 218.87999 45.749998" height="61" preserveAspectRatio="xMidYMid meet" version="1.0"><defs><clipPath id="7cf0e90392"><path d="M 0.609375 5.347656 L 25.460938 5.347656 L 25.460938 40.199219 L 0.609375 40.199219 Z M 0.609375 5.347656 " clip-rule="nonzero"/></clipPath><clipPath id="f80d2fe1b9"><path d="M 23.019531 11.863281 L 23.117188 11.535156 L 23.117188 5.347656 L 25.460938 5.347656 L 25.460938 11.445312 C 25.460938 11.863281 25.410156 12.242188 25.273438 12.570312 L 15.046875 38.78125 C 14.300781 40.609375 11.765625 40.609375 11.0625 38.78125 L 0.84375 12.570312 C 0.703125 12.242188 0.609375 11.863281 0.609375 11.445312 L 0.609375 5.347656 L 2.953125 5.347656 L 2.953125 11.347656 C 2.953125 11.535156 3 11.722656 3.046875 11.863281 L 12.703125 36.527344 C 12.847656 36.8125 13.269531 36.8125 13.40625 36.527344 Z M 23.019531 11.863281 " clip-rule="nonzero"/></clipPath><clipPath id="94aee747a5"><path d="M 33.949219 2.75 L 54.800781 2.75 L 54.800781 42.40625 L 33.949219 42.40625 Z M 33.949219 2.75 " clip-rule="nonzero"/></clipPath><clipPath id="6a45fd6b78"><path d="M 42.984375 2.890625 C 48.472656 2.335938 53.984375 6.011719 54.699219 11.808594 C 54.898438 13.433594 54.773438 32.859375 54.515625 34.421875 L 54.507812 34.476562 L 53.441406 34.285156 L 54.5 34.511719 C 53.152344 40.78125 46.890625 43.164062 41.800781 42.070312 C 38.035156 41.257812 34.65625 38.519531 34.050781 33.875 L 35.125 33.738281 L 34.050781 33.875 C 33.847656 32.320312 33.980469 12.449219 34.230469 10.878906 L 34.242188 10.839844 L 35.304688 11.027344 L 34.246094 10.820312 C 35.054688 6.683594 38.832031 3.3125 42.984375 2.890625 M 43.199219 5.042969 L 43.089844 3.964844 L 43.199219 5.042969 C 39.980469 5.367188 36.992188 8.050781 36.367188 11.226562 L 36.367188 11.21875 C 36.152344 12.5625 36.015625 32.222656 36.195312 33.589844 C 36.65625 37.160156 39.207031 39.289062 42.25 39.945312 C 46.539062 40.867188 51.351562 38.816406 52.378906 34.054688 L 52.375 34.070312 C 52.59375 32.742188 52.726562 13.523438 52.542969 12.066406 L 53.621094 11.933594 L 52.542969 12.066406 C 52 7.605469 47.6875 4.59375 43.199219 5.046875 Z M 43.199219 5.042969 " clip-rule="nonzero"/></clipPath><clipPath id="9610e5c09e"><path d="M 32.769531 19.515625 L 35.347656 19.515625 L 35.347656 26.285156 L 32.769531 26.285156 Z M 32.769531 19.515625 " clip-rule="nonzero"/></clipPath><clipPath id="81174c3cf4"><path d="M 34.195312 26.265625 L 33.863281 26.265625 C 33.265625 26.265625 32.785156 25.777344 32.785156 25.183594 L 32.785156 20.664062 C 32.785156 20.070312 33.265625 19.582031 33.863281 19.582031 L 34.195312 19.582031 C 34.789062 19.582031 35.277344 20.066406 35.277344 20.664062 L 35.277344 25.183594 C 35.277344 25.777344 34.796875 26.265625 34.195312 26.265625 " clip-rule="nonzero"/></clipPath><clipPath id="4db62074d4"><path d="M 37.820312 15.96875 L 40.507812 15.96875 L 40.507812 30.371094 L 37.820312 30.371094 Z M 37.820312 15.96875 " clip-rule="nonzero"/></clipPath><clipPath id="42229f99ce"><path d="M 39.339844 30.324219 L 38.996094 30.324219 C 38.386719 30.324219 37.894531 29.828125 37.894531 29.21875 L 37.894531 17.089844 C 37.894531 16.476562 38.386719 15.984375 38.996094 15.984375 L 39.339844 15.984375 C 39.949219 15.984375 40.445312 16.476562 40.445312 17.089844 L 40.445312 29.214844 C 40.445312 29.824219 39.949219 30.320312 39.339844 30.320312 " clip-rule="nonzero"/></clipPath><clipPath id="3d512d981c"><path d="M 43 12.421875 L 45.558594 12.421875 L 45.558594 33.703125 L 43 33.703125 Z M 43 12.421875 " clip-rule="nonzero"/></clipPath><clipPath id="8c3d035e6d"><path d="M 44.4375 33.59375 L 44.113281 33.59375 C 43.535156 33.59375 43.066406 33.125 43.066406 32.546875 L 43.066406 13.5625 C 43.066406 12.980469 43.535156 12.511719 44.113281 12.511719 L 44.4375 12.511719 C 45.019531 12.511719 45.488281 12.980469 45.488281 13.5625 L 45.488281 32.546875 C 45.488281 33.125 45.015625 33.59375 44.4375 33.59375 " clip-rule="nonzero"/></clipPath><clipPath id="5a4b08798c"><path d="M 48.351562 15.96875 L 50.609375 15.96875 L 50.609375 30.371094 L 48.351562 30.371094 Z M 48.351562 15.96875 " clip-rule="nonzero"/></clipPath><clipPath id="5419b05898"><path d="M 49.59375 30.324219 L 49.304688 30.324219 C 48.789062 30.324219 48.367188 29.902344 48.367188 29.386719 L 48.367188 16.917969 C 48.367188 16.402344 48.789062 15.984375 49.304688 15.984375 L 49.59375 15.984375 C 50.109375 15.984375 50.53125 16.402344 50.53125 16.917969 L 50.53125 29.386719 C 50.53125 29.902344 50.109375 30.324219 49.59375 30.324219 " clip-rule="nonzero"/></clipPath><clipPath id="62bcdea55e"><path d="M 53.402344 20 L 55.984375 20 L 55.984375 25.964844 L 53.402344 25.964844 Z M 53.402344 20 " clip-rule="nonzero"/></clipPath><clipPath id="1029b2d5f3"><path d="M 54.890625 25.933594 L 54.554688 25.933594 C 53.960938 25.933594 53.476562 25.453125 53.476562 24.855469 L 53.476562 21.117188 C 53.476562 20.523438 53.957031 20.039062 54.554688 20.039062 L 54.890625 20.039062 C 55.480469 20.039062 55.96875 20.519531 55.96875 21.117188 L 55.96875 24.855469 C 55.96875 25.449219 55.488281 25.933594 54.890625 25.933594 " clip-rule="nonzero"/></clipPath><clipPath id="57d3aca787"><path d="M 64.242188 5.027344 L 87.824219 5.027344 L 87.824219 40.449219 L 64.242188 40.449219 Z M 64.242188 5.027344 " clip-rule="nonzero"/></clipPath><clipPath id="36bddb19eb"><path d="M 87.824219 39.886719 C 80.785156 40.542969 73.804688 40.542969 66.765625 39.886719 C 65.6875 39.792969 64.84375 38.949219 64.753906 37.875 C 64.1875 27.695312 64.1875 17.804688 64.753906 7.628906 C 64.847656 6.503906 65.6875 5.703125 66.765625 5.609375 C 73.847656 4.949219 80.738281 4.949219 87.824219 5.609375 L 87.636719 7.90625 C 80.976562 7.34375 74.550781 7.296875 67.898438 7.859375 C 67.429688 7.859375 67.101562 8.230469 67.054688 8.703125 C 66.539062 18.128906 66.539062 27.371094 67.054688 36.746094 C 67.101562 37.214844 67.429688 37.589844 67.898438 37.640625 C 74.558594 38.203125 81.03125 38.15625 87.636719 37.589844 Z M 87.824219 39.886719 " clip-rule="nonzero"/></clipPath><clipPath id="3d1b55501c"><path d="M 95.324219 5.347656 L 120.175781 5.347656 L 120.175781 40.199219 L 95.324219 40.199219 Z M 95.324219 5.347656 " clip-rule="nonzero"/></clipPath><clipPath id="3cfb373ee5"><path d="M 108.128906 8.96875 L 107.566406 8.6875 L 97.765625 33.636719 C 97.71875 33.773438 97.667969 33.964844 97.667969 34.152344 L 97.667969 40.152344 L 95.324219 40.152344 L 95.324219 34.054688 C 95.324219 33.636719 95.421875 33.257812 95.558594 32.929688 L 105.785156 6.722656 C 106.484375 4.894531 109.019531 4.894531 109.769531 6.722656 L 119.992188 32.933594 C 120.132812 33.261719 120.175781 33.636719 120.175781 34.058594 L 120.175781 40.152344 L 117.832031 40.152344 L 117.832031 34.152344 C 117.832031 33.964844 117.785156 33.773438 117.738281 33.636719 Z M 108.128906 8.96875 " clip-rule="nonzero"/></clipPath><clipPath id="c3ce7f40e5"><path d="M 126.742188 5.589844 L 146.511719 5.589844 L 146.511719 39.976562 L 126.742188 39.976562 Z M 126.742188 5.589844 " clip-rule="nonzero"/></clipPath><clipPath id="27a8e30217"><path d="M 129.085938 5.589844 L 129.085938 36.628906 C 129.085938 37.144531 129.503906 37.570312 130.023438 37.570312 L 146.4375 37.570312 L 146.4375 39.914062 L 128.851562 39.914062 C 127.675781 39.914062 126.742188 38.972656 126.742188 37.800781 L 126.742188 5.589844 Z M 129.085938 5.589844 " clip-rule="nonzero"/></clipPath><clipPath id="b24507bc36"><path d="M 153 5.589844 L 155.34375 5.589844 L 155.34375 39.914062 L 153 39.914062 Z M 153 5.589844 " clip-rule="nonzero"/></clipPath><clipPath id="70e63c0272"><path d="M 164.253906 5.117188 L 188.074219 5.117188 L 188.074219 40.476562 L 164.253906 40.476562 Z M 164.253906 5.117188 " clip-rule="nonzero"/></clipPath><clipPath id="c9d4ac499e"><path d="M 164.253906 39.894531 L 164.253906 7.257812 C 164.253906 5.105469 167.113281 4.308594 168.144531 6.136719 L 185.214844 36.425781 C 185.355469 36.707031 185.730469 36.566406 185.730469 36.289062 L 185.730469 5.570312 L 188.074219 5.570312 L 188.074219 38.25 C 188.074219 40.410156 185.214844 41.207031 184.183594 39.328125 L 167.113281 9.089844 C 166.96875 8.808594 166.597656 8.902344 166.597656 9.183594 L 166.597656 39.894531 Z M 164.253906 39.894531 " clip-rule="nonzero"/></clipPath><clipPath id="1877360870"><path d="M 196.515625 5.589844 L 218.226562 5.589844 L 218.226562 39.925781 L 196.515625 39.925781 Z M 196.515625 5.589844 " clip-rule="nonzero"/></clipPath><clipPath id="78941c1437"><path d="M 198.859375 21.578125 L 203.3125 21.578125 L 215.414062 11.449219 C 215.742188 11.167969 215.929688 10.792969 215.929688 10.371094 L 215.929688 5.589844 L 218.273438 5.589844 L 218.273438 11.121094 C 218.273438 11.824219 217.941406 12.386719 217.425781 12.8125 L 205.566406 22.75 L 217.425781 32.742188 C 217.941406 33.160156 218.273438 33.722656 218.273438 34.429688 L 218.273438 39.910156 L 215.929688 39.910156 L 215.929688 35.175781 C 215.929688 34.753906 215.742188 34.378906 215.414062 34.097656 L 203.3125 23.925781 L 198.859375 23.925781 L 198.859375 39.910156 L 196.515625 39.910156 L 196.515625 5.589844 L 198.859375 5.589844 Z M 198.859375 21.578125 " clip-rule="nonzero"/></clipPath></defs><g clip-path="url(#7cf0e90392)"><g clip-path="url(#f80d2fe1b9)"><path fill="#151618" d="M 0.609375 5.347656 L 25.460938 5.347656 L 25.460938 40.199219 L 0.609375 40.199219 Z M 0.609375 5.347656 " fill-opacity="1" fill-rule="nonzero"/></g></g><g clip-path="url(#94aee747a5)"><g clip-path="url(#6a45fd6b78)"><path fill="#151618" d="M 30.617188 0.171875 L 58.132812 0.171875 L 58.132812 45.308594 L 30.617188 45.308594 Z M 30.617188 0.171875 " fill-opacity="1" fill-rule="nonzero"/></g></g><g clip-path="url(#9610e5c09e)"><g clip-path="url(#81174c3cf4)"><path fill="#2966eb" d="M 30.617188 0.171875 L 58.132812 0.171875 L 58.132812 45.308594 L 30.617188 45.308594 Z M 30.617188 0.171875 " fill-opacity="1" fill-rule="nonzero"/></g></g><g clip-path="url(#4db62074d4)"><g clip-path="url(#42229f99ce)"><path fill="#2966eb" d="M 30.617188 0.171875 L 58.132812 0.171875 L 58.132812 45.308594 L 30.617188 45.308594 Z M 30.617188 0.171875 " fill-opacity="1" fill-rule="nonzero"/></g></g><g clip-path="url(#3d512d981c)"><g clip-path="url(#8c3d035e6d)"><path fill="#2966eb" d="M 30.617188 0.171875 L 58.132812 0.171875 L 58.132812 45.308594 L 30.617188 45.308594 Z M 30.617188 0.171875 " fill-opacity="1" fill-rule="nonzero"/></g></g><g clip-path="url(#5a4b08798c)"><g clip-path="url(#5419b05898)"><path fill="#2966eb" d="M 30.617188 0.171875 L 58.132812 0.171875 L 58.132812 45.308594 L 30.617188 45.308594 Z M 30.617188 0.171875 " fill-opacity="1" fill-rule="nonzero"/></g></g><g clip-path="url(#62bcdea55e)"><g clip-path="url(#1029b2d5f3)"><path fill="#2966eb" d="M 30.617188 0.171875 L 58.132812 0.171875 L 58.132812 45.308594 L 30.617188 45.308594 Z M 30.617188 0.171875 " fill-opacity="1" fill-rule="nonzero"/></g></g><g clip-path="url(#57d3aca787)"><g clip-path="url(#36bddb19eb)"><path fill="#151618" d="M 64.332031 5.121094 L 87.824219 5.121094 L 87.824219 40.359375 L 64.332031 40.359375 Z M 64.332031 5.121094 " fill-opacity="1" fill-rule="nonzero"/></g></g><g clip-path="url(#3d1b55501c)"><g clip-path="url(#3cfb373ee5)"><path fill="#151618" d="M 95.324219 5.347656 L 120.175781 5.347656 L 120.175781 40.199219 L 95.324219 40.199219 Z M 95.324219 5.347656 " fill-opacity="1" fill-rule="nonzero"/></g></g><g clip-path="url(#c3ce7f40e5)"><g clip-path="url(#27a8e30217)"><path fill="#151618" d="M 126.742188 5.589844 L 146.433594 5.589844 L 146.433594 39.898438 L 126.742188 39.898438 Z M 126.742188 5.589844 " fill-opacity="1" fill-rule="nonzero"/></g></g><g clip-path="url(#b24507bc36)"><path fill="#151618" d="M 153 5.589844 L 155.34375 5.589844 L 155.34375 39.917969 L 153 39.917969 Z M 153 5.589844 " fill-opacity="1" fill-rule="nonzero"/></g><g clip-path="url(#70e63c0272)"><g clip-path="url(#c9d4ac499e)"><path fill="#151618" d="M 164.253906 5.117188 L 188.074219 5.117188 L 188.074219 40.382812 L 164.253906 40.382812 Z M 164.253906 5.117188 " fill-opacity="1" fill-rule="nonzero"/></g></g><g clip-path="url(#1877360870)"><g clip-path="url(#78941c1437)"><path fill="#151618" d="M 196.515625 5.589844 L 218.269531 5.589844 L 218.269531 39.925781 L 196.515625 39.925781 Z M 196.515625 5.589844 " fill-opacity="1" fill-rule="nonzero"/></g></g></svg>